<?xml version="1.0" encoding="UTF-8" standalone="no"?>
<svg
   xmlns:dc="http://purl.org/dc/elements/1.1/"
   xmlns:cc="http://creativecommons.org/ns#"
   xmlns:rdf="http://www.w3.org/1999/02/22-rdf-syntax-ns#"
   xmlns:svg="http://www.w3.org/2000/svg"
   xmlns="http://www.w3.org/2000/svg"
   xmlns:sodipodi="http://sodipodi.sourceforge.net/DTD/sodipodi-0.dtd"
   xmlns:inkscape="http://www.inkscape.org/namespaces/inkscape"
   inkscape:version="1.0 (4035a4f, 2020-05-01)"
   sodipodi:docname="HW_POS_RBG_Vertical.svg"
   viewBox="0 0 562.23071 573.992"
   height="573.992"
   width="562.23071"
   xml:space="preserve"
   id="svg10"
   version="1.1"><metadata
     id="metadata16"><rdf:RDF><cc:Work
         rdf:about=""><dc:format>image/svg+xml</dc:format><dc:type
           rdf:resource="http://purl.org/dc/dcmitype/StillImage" /><dc:title></dc:title></cc:Work></rdf:RDF></metadata><defs
     id="defs14"><clipPath
       id="clipPath30"
       clipPathUnits="userSpaceOnUse"><path
         id="path28"
         d="M 0,566.929 H 566.929 V 0 H 0 Z" /></clipPath><radialGradient
       id="radialGradient72"
       spreadMethod="pad"
       gradientTransform="matrix(297.74359,0,0,-297.74359,331.53049,450.29495)"
       gradientUnits="userSpaceOnUse"
       r="1"
       cy="0"
       cx="0"
       fy="0"
       fx="0"><stop
         id="stop62"
         offset="0"
         style="stop-opacity:1;stop-color:#f7bfa4" /><stop
         id="stop64"
         offset="0.42990542"
         style="stop-opacity:1;stop-color:#e60012" /><stop
         id="stop66"
         offset="0.43"
         style="stop-opacity:1;stop-color:#e60012" /><stop
         id="stop68"
         offset="0.99081387"
         style="stop-opacity:1;stop-color:#a00000" /><stop
         id="stop70"
         offset="1"
         style="stop-opacity:1;stop-color:#a00000" /></radialGradient></defs><sodipodi:namedview
     inkscape:current-layer="g18"
     inkscape:window-maximized="0"
     inkscape:window-y="23"
     inkscape:window-x="0"
     inkscape:cy="280.95399"
     inkscape:cx="281.24874"
     inkscape:zoom="1.1496149"
     fit-margin-bottom="10"
     fit-margin-right="10"
     fit-margin-left="10"
     fit-margin-top="10"
     lock-margins="true"
     showgrid="false"
     id="namedview12"
     inkscape:window-height="1031"
     inkscape:window-width="1316"
     inkscape:pageshadow="2"
     inkscape:pageopacity="0"
     guidetolerance="10"
     gridtolerance="10"
     objecttolerance="10"
     borderopacity="1"
     bordercolor="#666666"
     pagecolor="#ffffff" /><g
     transform="matrix(1.3333333,0,0,-1.3333333,-96.703929,658.90665)"
     inkscape:label="HW_POS_RBG_Vertical"
     inkscape:groupmode="layer"
     id="g18"><g
       transform="translate(125.8599,112.975)"
       id="g20"><path
         id="path22"
         style="fill:#231815;fill-opacity:1;fill-rule:nonzero;stroke:none"
         d="m 0,0 h -31.306 v 27.567 h -13.866 v -68.335 h 13.866 v 27.752 H 0 V -40.768 H 13.864 V 27.567 H 0 Z" /></g><g
       id="g24"><g
         clip-path="url(#clipPath30)"
         id="g26"><g
           transform="translate(203.9639,101.431)"
           id="g32"><path
             id="path34"
             style="fill:#231815;fill-opacity:1;fill-rule:nonzero;stroke:none"
             d="m 0,0 c 0,-11.112 -5.517,-17.044 -15.532,-17.044 -10.075,0 -15.624,6.1 -15.624,17.516 V 39.071 H -45.02 V 0 c 0,-19.222 10.68,-30.245 29.302,-30.245 18.8,0 29.581,11.229 29.581,30.81 V 39.111 H 0 Z" /></g><g
           transform="translate(364.2021,93.5541)"
           id="g36"><path
             id="path38"
             style="fill:#231815;fill-opacity:1;fill-rule:nonzero;stroke:none"
             d="M 0,0 -15.516,46.998 H -26.83 L -42.344,0 -57.438,46.958 h -14.756 l 23.812,-68.305 h 11.483 l 15.538,44.87 15.535,-44.87 H 5.752 L 29.507,46.958 H 15.129 Z" /></g><g
           transform="translate(418.5654,101.6156)"
           id="g40"><path
             id="path42"
             style="fill:#231815;fill-opacity:1;fill-rule:nonzero;stroke:none"
             d="M 0,0 H 25.219 V 12.447 H 0 v 13.987 h 36.605 v 12.447 h -50.283 v -68.245 h 51.601 v 12.446 H 0 Z" /></g><path
           id="path44"
           style="fill:#231815;fill-opacity:1;fill-rule:nonzero;stroke:none"
           d="m 473.023,72.302 h 13.678 v 68.245 h -13.678 z" /><g
           transform="translate(260.834,123.2504)"
           id="g46"><path
             id="path48"
             style="fill:#231815;fill-opacity:1;fill-rule:nonzero;stroke:none"
             d="m 0,0 10.515,-24.458 h -20.962 z m 15.669,-36.778 6.136,-14.224 H 36.337 L 6.354,17.292 H -5.875 l -30.104,-68.294 h 14.152 l 6.223,14.224 z" /></g></g></g><g
       id="g50"><g
         id="g52"><g
           id="g58"><g
             id="g60"><path
               id="path74"
               style="fill:url(#radialGradient72);stroke:none"
               d="m 294.062,259.154 c 0.092,-0.943 0.601,-1.281 1.032,-1.395 v 0 c 0.675,-0.179 1.321,0.064 1.767,0.697 v 0 c 11.869,17.155 66.003,97.405 76.997,146.209 v 0 c 0,0 5.959,23.624 0.202,39.629 v 0 c 0,0 -8.17,30.484 -41.293,38.541 v 0 c 0,0 -9.54,2.415 -19.676,3.845 v 0 c 0,0 -37.024,-47.668 -19.029,-227.526 m -60.22,223.681 c -33.123,-8.057 -41.293,-38.541 -41.293,-38.541 v 0 c -5.758,-16.005 0.201,-39.629 0.201,-39.629 v 0 c 10.994,-48.804 65.129,-129.054 76.999,-146.209 v 0 c 0.444,-0.633 1.092,-0.876 1.766,-0.697 v 0 c 0.431,0.114 0.939,0.452 1.031,1.395 v 0 C 290.542,439.012 253.518,486.68 253.518,486.68 v 0 c -10.136,-1.43 -19.676,-3.845 -19.676,-3.845 m 77.609,-233.087 c -0.249,-0.542 -0.34,-1.456 0.224,-1.932 v 0 c 0.386,-0.325 1.097,-0.543 1.826,-0.181 v 0 c 17.838,8.851 91.993,47.049 123.234,76.841 v 0 c 0,0 19.533,15.693 20.568,40.883 v 0 c 2.251,34.986 -32.964,67.364 -32.964,67.364 v 0 c 0,0 -65.297,-79.092 -112.888,-182.975 M 109.306,365.359 c 1.035,-25.19 20.568,-40.883 20.568,-40.883 v 0 c 31.24,-29.792 105.396,-67.99 123.232,-76.841 v 0 c 0.73,-0.362 1.441,-0.144 1.826,0.181 v 0 c 0.565,0.476 0.474,1.39 0.225,1.932 v 0 C 207.566,353.631 142.27,432.723 142.27,432.723 v 0 c 0,0 -35.216,-32.378 -32.964,-67.364 m 212.55,-130.257 c -0.402,-0.27 -0.913,-0.812 -0.642,-1.795 v 0 c 0.145,-0.52 0.639,-0.986 1.298,-0.99 v 0 c 19.658,-0.029 94.085,-0.119 95.96,0.23 v 0 c 0,0 9.624,0.382 21.516,4.948 v 0 c 0,0 26.468,8.416 40.218,38.477 v 0 c 0,0 12.262,24.522 2.774,53.165 v 0 c 0,0 -106.218,-57.037 -161.124,-94.035 m -235.453,40.87 c 13.75,-30.061 40.218,-38.477 40.218,-38.477 v 0 c 11.893,-4.566 21.516,-4.948 21.516,-4.948 v 0 c 1.874,-0.349 76.301,-0.259 95.96,-0.23 v 0 c 0.659,0.004 1.152,0.47 1.297,0.99 v 0 c 0.273,0.983 -0.239,1.525 -0.642,1.795 v 0 C 189.846,272.1 83.63,329.137 83.63,329.137 v 0 c -9.49,-28.643 2.773,-53.165 2.773,-53.165 m 236.896,-53.751 c -0.199,-0.393 -0.374,-1.366 0.381,-1.907 v 0 c 11.956,-8.576 48.212,-33.926 65.685,-38.851 v 0 c 0,0 32.3,-11.009 60.356,37.192 v 0 c 0,0 -93.884,3.271 -125.099,4.358 v 0 c -0.01,0 -0.021,0 -0.032,0 v 0 c -0.431,0 -1.042,-0.302 -1.291,-0.792 m -81.312,0.792 c -31.215,-1.087 -125.1,-4.358 -125.1,-4.358 v 0 c 28.056,-48.201 60.356,-37.192 60.356,-37.192 v 0 c 17.474,4.925 53.73,30.275 65.685,38.851 v 0 c 0.755,0.541 0.581,1.514 0.382,1.907 v 0 c -0.25,0.49 -0.86,0.792 -1.292,0.792 v 0 c -0.011,0 -0.021,0 -0.031,0" /></g></g></g></g></g></svg>
